<svg width="29" height="29" viewBox="0 0 29 29" fill="none" xmlns="http://www.w3.org/2000/svg">
<path fill-rule="evenodd" clip-rule="evenodd" d="M21.46 12.5739H22.8989C23.5391 12.5739 24.0581 13.0928 24.0581 13.733V15.2785C24.0585 15.5862 23.9365 15.8815 23.7191 16.0992C23.5017 16.3169 23.2066 16.4392 22.8989 16.4392H21.46C21.3172 16.9338 21.1195 17.4107 20.8704 17.8611L21.8881 18.8789C22.3406 19.3315 22.3406 20.0653 21.8881 20.5179L20.7954 21.6106C20.3428 22.0631 19.609 22.0631 19.1564 21.6106L18.1379 20.5929C17.6875 20.8416 17.2109 21.0393 16.7168 21.1825V22.6199C16.7168 23.26 16.1978 23.779 15.5576 23.779H14.0121C13.3719 23.779 12.8529 23.26 12.8529 22.6199V21.1825C12.3585 21.0391 11.8816 20.8411 11.431 20.5921L10.4125 21.6098C9.95233 22.0446 9.23285 22.0446 8.77268 21.6098L7.67999 20.5172C7.22748 20.0645 7.22748 19.3308 7.67999 18.8781L8.69927 17.8588C8.45007 17.4087 8.25228 16.932 8.10965 16.4377H6.67075C6.03057 16.4377 5.5116 15.9187 5.5116 15.2785V13.733C5.5116 13.0928 6.03057 12.5739 6.67075 12.5739H8.10965C8.25234 12.0798 8.45012 11.6034 8.69927 11.1535L7.68076 10.1358C7.46322 9.91836 7.34099 9.62341 7.34099 9.31586C7.34099 9.0083 7.46322 8.71335 7.68076 8.49595L8.77423 7.40325C9.22688 6.95074 9.96062 6.95074 10.4133 7.40325L11.4318 8.42099C11.8821 8.17232 12.3588 7.97456 12.8529 7.83137V6.3917C12.8529 5.75151 13.3719 5.23254 14.0121 5.23254H15.5576C16.1978 5.23254 16.7168 5.75151 16.7168 6.3917V7.83137C17.2107 7.97423 17.6872 8.172 18.1371 8.42099L19.1556 7.40325C19.6083 6.95074 20.342 6.95074 20.7947 7.40325L21.8881 8.49518C22.1057 8.71258 22.2279 9.00753 22.2279 9.31508C22.2279 9.62264 22.1057 9.91759 21.8881 10.135L20.8704 11.152C21.1192 11.6025 21.317 12.0794 21.46 12.5739ZM10.921 14.5058C10.921 16.6397 12.6509 18.3696 14.7848 18.3696C16.9177 18.3671 18.6461 16.6387 18.6487 14.5058C18.6487 12.3718 16.9188 10.6419 14.7848 10.6419C12.6509 10.6419 10.921 12.3718 10.921 14.5058Z" fill="#2D9CDB" fill-opacity="0.5"/>
<mask id="mask0_34_12398" style="mask-type:luminance" maskUnits="userSpaceOnUse" x="5" y="5" width="20" height="19">
<path fill-rule="evenodd" clip-rule="evenodd" d="M21.46 12.5739H22.8989C23.5391 12.5739 24.0581 13.0928 24.0581 13.733V15.2785C24.0585 15.5862 23.9365 15.8815 23.7191 16.0992C23.5017 16.3169 23.2066 16.4392 22.8989 16.4392H21.46C21.3172 16.9338 21.1195 17.4107 20.8704 17.8611L21.8881 18.8789C22.3406 19.3315 22.3406 20.0653 21.8881 20.5179L20.7954 21.6106C20.3428 22.0631 19.609 22.0631 19.1564 21.6106L18.1379 20.5929C17.6875 20.8416 17.2109 21.0393 16.7168 21.1825V22.6199C16.7168 23.26 16.1978 23.779 15.5576 23.779H14.0121C13.3719 23.779 12.8529 23.26 12.8529 22.6199V21.1825C12.3585 21.0391 11.8816 20.8411 11.431 20.5921L10.4125 21.6098C9.95233 22.0446 9.23285 22.0446 8.77268 21.6098L7.67999 20.5172C7.22748 20.0645 7.22748 19.3308 7.67999 18.8781L8.69927 17.8588C8.45007 17.4087 8.25228 16.932 8.10965 16.4377H6.67075C6.03057 16.4377 5.5116 15.9187 5.5116 15.2785V13.733C5.5116 13.0928 6.03057 12.5739 6.67075 12.5739H8.10965C8.25234 12.0798 8.45012 11.6034 8.69927 11.1535L7.68076 10.1358C7.46322 9.91836 7.34099 9.62341 7.34099 9.31586C7.34099 9.0083 7.46322 8.71335 7.68076 8.49595L8.77423 7.40325C9.22688 6.95074 9.96062 6.95074 10.4133 7.40325L11.4318 8.42099C11.8821 8.17232 12.3588 7.97456 12.8529 7.83137V6.3917C12.8529 5.75151 13.3719 5.23254 14.0121 5.23254H15.5576C16.1978 5.23254 16.7168 5.75151 16.7168 6.3917V7.83137C17.2107 7.97423 17.6872 8.172 18.1371 8.42099L19.1556 7.40325C19.6083 6.95074 20.342 6.95074 20.7947 7.40325L21.8881 8.49518C22.1057 8.71258 22.2279 9.00753 22.2279 9.31508C22.2279 9.62264 22.1057 9.91759 21.8881 10.135L20.8704 11.152C21.1192 11.6025 21.317 12.0794 21.46 12.5739ZM10.921 14.5058C10.921 16.6397 12.6509 18.3696 14.7848 18.3696C16.9177 18.3671 18.6461 16.6387 18.6487 14.5058C18.6487 12.3718 16.9188 10.6419 14.7848 10.6419C12.6509 10.6419 10.921 12.3718 10.921 14.5058Z" fill="white"/>
</mask>
<g mask="url(#mask0_34_12398)">
</g>
</svg>
