<svg width="513" height="513" viewBox="0 0 513 513" fill="none" xmlns="http://www.w3.org/2000/svg">
<path d="M204.351 48.6758H68.3506C57.3049 48.6758 48.3506 57.6301 48.3506 68.6758V204.676C48.3506 215.721 57.3049 224.676 68.3506 224.676H204.351C215.396 224.676 224.351 215.721 224.351 204.676V68.6758C224.351 57.6301 215.396 48.6758 204.351 48.6758Z" stroke="white" stroke-width="32" stroke-linecap="round" stroke-linejoin="round"/>
<path d="M444.351 48.6758H308.351C297.305 48.6758 288.351 57.6301 288.351 68.6758V204.676C288.351 215.721 297.305 224.676 308.351 224.676H444.351C455.396 224.676 464.351 215.721 464.351 204.676V68.6758C464.351 57.6301 455.396 48.6758 444.351 48.6758Z" stroke="white" stroke-width="32" stroke-linecap="round" stroke-linejoin="round"/>
<path d="M204.351 288.676H68.3506C57.3049 288.676 48.3506 297.63 48.3506 308.676V444.676C48.3506 455.721 57.3049 464.676 68.3506 464.676H204.351C215.396 464.676 224.351 455.721 224.351 444.676V308.676C224.351 297.63 215.396 288.676 204.351 288.676Z" stroke="white" stroke-width="32" stroke-linecap="round" stroke-linejoin="round"/>
<path d="M444.351 288.676H308.351C297.305 288.676 288.351 297.63 288.351 308.676V444.676C288.351 455.721 297.305 464.676 308.351 464.676H444.351C455.396 464.676 464.351 455.721 464.351 444.676V308.676C464.351 297.63 455.396 288.676 444.351 288.676Z" stroke="white" stroke-width="32" stroke-linecap="round" stroke-linejoin="round"/>
</svg>
